<svg id="Layer_1" data-name="Layer 1" xmlns="http://www.w3.org/2000/svg" viewBox="0 0 653.13 465.06"><defs><style>.cls-1{fill:#89acc9;}.cls-2{fill:#fefefe;}.cls-3{fill:#8aacc9;}.cls-4{fill:#8aadc9;}.cls-5{fill:#8aadca;}.cls-6{fill:#96b5cf;}.cls-7{fill:#90b1cc;}.cls-8{fill:#a0bcd3;}.cls-9{fill:#9ebbd3;}.cls-10{fill:#e8eff4;}.cls-11{fill:#97b6cf;}.cls-12{fill:#9bb9d1;}.cls-13{fill:#9dbad2;}.cls-14{fill:#8fb0cc;}.cls-15{fill:#92b2cd;}.cls-16{fill:#b7ccde;}.cls-17{fill:#9bb8d1;}.cls-18{fill:#9ab8d1;}.cls-19{fill:#f0f5f8;}.cls-20{fill:#ecf1f6;}.cls-21{fill:#91b2cd;}.cls-22{fill:#97b6d0;}.cls-23{fill:#95b4ce;}.cls-24{fill:#a7c1d7;}.cls-25{fill:#9fbbd3;}.cls-26{fill:#93b3cd;}.cls-27{fill:#99b7d0;}.cls-28{fill:#a2bdd4;}.cls-29{fill:#9cb9d1;}.cls-30{fill:#94b4ce;}.cls-31{fill:#98b6d0;}.cls-32{fill:#e2eaf1;}.cls-33{fill:#e6edf3;}.cls-34{fill:#98b7d0;}.cls-35{fill:#a0bcd4;}.cls-36{fill:#92b3cd;}.cls-37{fill:#a8c2d7;}.cls-38{fill:#d3e0eb;}.cls-39{fill:#dbe5ee;}.cls-40{fill:#e3ebf2;}.cls-41{fill:#ebf1f6;}.cls-42{fill:#a4bfd5;}.cls-43{fill:#aac4d8;}.cls-44{fill:#dae5ee;}.cls-45{fill:#aec6da;}.cls-46{fill:#acc5d9;}.cls-47{fill:#c5d6e4;}.cls-48{fill:#b7cdde;}.cls-49{fill:#bdd1e1;}.cls-50{fill:#a5c0d6;}.cls-51{fill:#afc7da;}.cls-52{fill:#9ab8d0;}.cls-53{fill:#9ebad2;}.cls-54{fill:#b4cadd;}.cls-55{fill:#d1dee9;}.cls-56{fill:#9fbcd3;}.cls-57{fill:#8baeca;}.cls-58{fill:#d4e1eb;}.cls-59{fill:#c8d8e5;}.cls-60{fill:#8caeca;}.cls-61{fill:#dde7ef;}.cls-62{fill:#d8e4ed;}.cls-63{fill:#e1eaf1;}.cls-64{fill:#a9c2d7;}.cls-65{fill:#91b1cc;}.cls-66{fill:#dee7f0;}.cls-67{fill:#b4cadc;}.cls-68{fill:#a6c0d6;}.cls-69{fill:#dfe8f0;}.cls-70{fill:#a7c1d6;}.cls-71{fill:#d5e1eb;}.cls-72{fill:#abc4d8;}.cls-73{fill:#c7d8e5;}.cls-74{fill:#8dafcb;}.cls-75{fill:#adc5d9;}.cls-76{fill:#c4d5e4;}.cls-77{fill:#b6cbdd;}.cls-78{fill:#aac3d8;}.cls-79{fill:#d8e3ed;}.cls-80{fill:#a1bdd4;}.cls-81{fill:#c1d3e2;}.cls-82{fill:#b9cedf;}.cls-83{fill:#b0c7db;}.cls-84{fill:#b1c9db;}.cls-85{fill:#9db9d2;}.cls-86{fill:#afc6da;}.cls-87{fill:#bed1e1;}.cls-88{fill:#e2eaf2;}.cls-89{fill:#d7e3ed;}.cls-90{fill:#bacee0;}.cls-91{fill:#cfdde9;}.cls-92{fill:#bdd0e1;}.cls-93{fill:#c3d4e3;}.cls-94{fill:#d0dee9;}.cls-95{fill:#d4e0eb;}.cls-96{fill:#b6ccdd;}.cls-97{fill:#cbdae7;}.cls-98{fill:#dee8ef;}.cls-99{fill:#9cbad2;}.cls-100{fill:#b3c9dc;}.cls-101{fill:#b5cbdd;}.cls-102{fill:#9cb9d2;}.cls-103{fill:#d6e2ec;}.cls-104{fill:#dbe6ee;}.cls-105{fill:#bfd1e1;}.cls-106{fill:#cad9e6;}.cls-107{fill:#eaf0f5;}.cls-108{fill:#e6eef3;}.cls-109{fill:#9ebbd2;}.cls-110{fill:#afc7db;}.cls-111{fill:#b0c8db;}.cls-112{fill:#a5bfd6;}.cls-113{fill:#a3bfd5;}.cls-114{fill:#fdfefe;}.cls-115{fill:#fdfdfe;}</style></defs><title>Artboard 1</title><path class="cls-1" d="M326.57,465q-162,0-324,.05c-2,0-2.61-.27-2.61-2.5Q.11,232.46,0,2.36C0,.27.5,0,2.47,0Q326.56,0,650.65,0c1.93,0,2.48.26,2.48,2.38q-.11,230.22,0,460.45c0,1.94-.51,2.26-2.33,2.26Q488.69,465,326.57,465Z"/><path class="cls-2" d="M198.27,315.64c1.75-1.89,2.34-3.83,3.32-5.52,1.7-2.89,3.5-3.89,5.8-3.15s3.31,2.81,3.16,5.88c-.07,1.39-.77,2.73-.36,4.18.9,0,.94-.87,1.3-1.36,1.44-1.94,2.75-4,4.28-5.85,2.07-2.54,5.54-3.52,7.8-2.36s3.11,3.63,2.32,7.26c-2,9.19-4.11,18.36-6.11,27.55-.64,2.92-1.62,5.8-1.37,8.86.07.89,0,1.93,1,2.38s1.8-.2,2.51-.75c4.13-3.27,6.88-7.6,9.6-12,3.8-6.15,3.79-13.14,5-19.89,1.06-6,2.32-11.93,3.48-17.89.18-.91.42-1.58,1.59-1.42,2.66.36,5.52,3.26,5.52,5.89,0,9.49.46,19-1.35,28.41-.27,1.35.29,2.63.31,4a.92.92,0,0,0,1,.9c4.26.11,9.17-1.58,9.06-7.25-.19-9.46.48-18.81,3.76-27.81.4-1.11.3-2.95,1.84-2.82a3.66,3.66,0,0,1,3.3,3.31c1,9.5,2.42,19,.89,28.59a39.62,39.62,0,0,1-2.17,7.41c-.69,1.9-1.87,4.53.63,5.51,2.21.87,3.32-1.59,4.17-3.42,3.45-7.45,5.16-15.46,7.4-23.3,1.53-5.36,3.39-10.63,4.23-16.17a3.35,3.35,0,0,1,3.07-3.13c1.84-.21,2.36,1.3,3,2.51a8.27,8.27,0,0,1,.78,4.37,7,7,0,0,0,.94,4.37,14.58,14.58,0,0,1,9.72-6.56c3.3-.75,4.9,0,5.82,3.32,1.39,5,1,10-.14,15.05-1,4.47-1.66,9-3.19,13.35a15.24,15.24,0,0,0-.62,3.43,2.1,2.1,0,0,0,1.15,2.31c1.08.47,1.75-.39,2.24-1.12,2.93-4.37,5.25-8.83,5.78-14.34.81-8.54,3.62-16.47,10.65-22.12,3.88-3.12,10.92-1,12.78,3.64.33.84.91,1.92-.14,2.44s-1.18-.8-1.58-1.43c-.64-1-1.36-2.12-2.59-2.14-1.47,0-1.58,1.52-2,2.53a42.76,42.76,0,0,0-3.95,15.64,12.22,12.22,0,0,1-1.83,6.16,19.45,19.45,0,0,0-2,4.81c-1,3.31-.47,4.18,3,4.63a11.69,11.69,0,0,0,7-1.38A31.77,31.77,0,0,0,343.66,323a10.47,10.47,0,0,0,.49-2.94c.63-9.55,1.35-19.09,2.88-28.56.9-5.53,4-10.21,5.8-15.37.68-1.95,2.58-3,4.52-3.71,3.73-1.34,7.1.81,7.17,4.78A22.61,22.61,0,0,1,359,292.63a7.35,7.35,0,0,0-1.89,5.43c.17,5.61-1,11.1-1.77,16.62a31.14,31.14,0,0,0-.19,7.42,50.47,50.47,0,0,1,5.39-8,31,31,0,0,1,3.39-3.65c3.41-2.82,7.73-1.24,8.57,3.06a12.72,12.72,0,0,1-.11,6.68c-1.62,4.59-2.17,9.41-2.93,14.16a48.94,48.94,0,0,1-4,12.31c-1,2.29-2,4.62-.57,7.17s2.79,2.87,4.95,1a24.64,24.64,0,0,0,4.57-5.59,95.83,95.83,0,0,0,9-17.54c1.34-3.51,1.23-7.49,2.38-11.17a26.4,26.4,0,0,1,8.92-13,13.79,13.79,0,0,1,10.75-3c3.22.4,4.52,2,4.24,5.24a14.73,14.73,0,0,1-4.48,9.26c-2.45,2.48-5,4.87-7.64,7.18a4.67,4.67,0,0,0-1.64,3.44c-.3,3.65-.9,7.26.31,10.89.7,2.09,1.88,2.75,4,2.28a13,13,0,0,0,7.27-4.58,53.89,53.89,0,0,0,10-18.55c2.15-7,5.83-12.67,12.77-15.78a7.7,7.7,0,0,1,5.79-.47c2.59.82,3.17.39,3.74-2.35q2.15-10.4,4.27-20.8a17.08,17.08,0,0,1,2.71-6.65c1.09-1.51,2.31-1.71,3.84-.62a6.56,6.56,0,0,1,2.94,4.44,30.42,30.42,0,0,1,.05,6.47c-.68,13.46-2.23,26.85-3.51,40.27-.34,3.55.18,7.18-.62,10.7-.61,2.67-1.58,5.24-1.42,8.06.15,2.59.38,2.81,2.77,1.65,4.23-2,7.09-5.44,9.37-9.42,3.67-6.37,5.43-13.38,6.83-20.52.16-.85.05-2.13,1.3-2.06,1.5.08,1.15,1.5,1,2.36-1.45,10.5-4.58,20.3-12.1,28.19a20.91,20.91,0,0,1-7.63,5.1c-3.18,1.24-5.6.59-7.79-2a17.31,17.31,0,0,1-2.75-5c-.52-1.32-.91-2-2.3-.62-4.05,4.14-9,4.62-14.35,3.22a9.35,9.35,0,0,1-6.9-8.31,5.54,5.54,0,0,0-.68-3c-2,2.78-3.55,5.58-5.76,7.91a16.22,16.22,0,0,1-7.63,5,13.65,13.65,0,0,1-16-7.85c-.2-.44-.44-.87-.83-1.66-1.46,2.75-2.74,5.23-4.07,7.68a69.4,69.4,0,0,1-6.14,9.71c-5.21,6.72-11.79,6.18-15.92-1.29a15.44,15.44,0,0,1-1.06-12.83c2.74-8.12,5.07-16.36,7.47-24.58a3.1,3.1,0,0,0,0-.89c-2.17,1-3.27,2.84-4.57,4.51-4.73,6.11-6.88,13.19-7.83,20.73a16.71,16.71,0,0,1-.87,3.63,3.57,3.57,0,0,1-3.54,2.32c-1.65,0-2.23-1.22-2.65-2.55a29.57,29.57,0,0,1-1.32-8.61,26.51,26.51,0,0,0-.26-4.21c-2.58,3.67-5.2,7.17-8.75,9.85a27.31,27.31,0,0,1-13.63,5.75c-5,.52-8.76-1.68-10.87-6.23-.38-.82-.73-1.65-1.3-2.94-.77,1.78-1.35,3.19-2,4.57a29.34,29.34,0,0,1-1.59,3.11c-3,4.73-6.85,4.82-10,.17a16.75,16.75,0,0,1-2.62-9.25c-.12-5,1.37-9.7,2.68-14.43.76-2.73,1.49-5.47,2.14-8.22.43-1.86-.44-2.28-2.07-1.63a5.81,5.81,0,0,0-2.81,2.39,73.65,73.65,0,0,0-6.72,12.53,21.69,21.69,0,0,0-1.76,9.74,13.91,13.91,0,0,1-.78,6.15c-.71,1.86-1.71,3.32-3.91,3.19s-4.58-2.31-4.79-4.15a42.88,42.88,0,0,1,0-4.7c-1.23.52-1.18,1.54-1.48,2.29-1.2,3-2.19,6.13-3.58,9.06-2.16,4.59-5.91,5-9.22,1.16a14.48,14.48,0,0,1-3.14-5.9c-.34-1.35-.84-1.74-1.93-.54-6.4,7-15.71,4.26-19.25-2.89a6.43,6.43,0,0,0-.66-.86c-1.25,2.5-2.36,4.91-3.62,7.24a33.07,33.07,0,0,1-5.92,7.7c-4.89,4.88-11.61,3.17-13.66-3.49a17.76,17.76,0,0,1-.29-8.66c1.66-8.67,3.26-17.35,5.87-25.81.18-.61.56-1.22.07-2a9.54,9.54,0,0,0-2.87,3.66q-3.94,6.81-7.86,13.63c-.38.66-.72,1.43-1.65,1.24a2.05,2.05,0,0,1-1.48-1.55,8.61,8.61,0,0,1,0-4.45c.83-4,1.67-8,2.47-12a27,27,0,0,0,.35-3c0-.41-.07-.91-.59-.93a1.12,1.12,0,0,0-.79.48,20.27,20.27,0,0,0-1.26,2.16c-3.63,7.14-5.81,14.88-9.06,22.18-1.13,2.54-.89,5.56-2,8.21-.53,1.28-1,2.48-2.62,2.63a3.42,3.42,0,0,1-3.29-1.85c-1.9-2.93-2.11-6.32-2.29-9.62-.64-12.08-1-24.16,2.74-35.91.34-1.07.26-2.62,1.7-2.76,1.28-.12,2.32.85,3.11,1.85a24,24,0,0,1,4.73,11.93C197.86,310.76,198,312.91,198.27,315.64Z"/><path class="cls-2" d="M250.11,179.2c.31-6.32.72-14.46,1.08-22.61.07-1.75,1-2.4,2.56-2.78a112.79,112.79,0,0,1,24.44-3.32c2.42,0,3.36-.72,3.43-3.26.14-5.49.67-11,.92-16.45a2.82,2.82,0,0,1,2.39-3c3.77-1,7.52-2.17,11.27-3.28a44.13,44.13,0,0,0,10.08-4.29c.8-.48,1.82-1.47,2.59-.26s-.46,1.72-1.29,2.25a34.77,34.77,0,0,1-8.64,3.88c-3.66,1.12-7.33,2.19-11,3.15-1.93.5-3,1.43-3.11,3.56-.23,5.15-.55,10.3-.9,15.45-.09,1.34.37,1.76,1.67,1.75,3.5-.05,7,.06,10.49.24,2.48.13,3,1.19,2.91,3.45a233.16,233.16,0,0,1-3.22,27.51,209.87,209.87,0,0,0-3.21,36.51c0,5.41-.27,10.82-.38,16.23,0,1.41-.33,2.35-2,2.58-6,.83-12,1.88-18,2.65a26.31,26.31,0,0,1-10.6-1,5.51,5.51,0,0,1-3.91-3.85,23,23,0,0,1-1.08-4.1c-1.44-11.9-4.66-23.52-5.66-35.48A140.35,140.35,0,0,1,250.11,179.2Z"/><path class="cls-2" d="M346.5,199c-5.05.14-11,.7-16.81-.53-3.09-.65-6.12-1.57-9.19-2.32-4.32-1-8.56-1.49-12.27,1.8-.56.5-1.37.92-2,.13s.06-1.54.6-2.19a50.93,50.93,0,0,1,17.63-13.63c16.66-7.94,33.93-8.81,51.58-4a32.75,32.75,0,0,1,14.48,8.5c2.13,2.1,4.43,4,6.65,6,.6.54,1.55,1,1.24,2s-1.39,1.07-2.29,1.14c-4.81.36-9.63.64-14.44,1.05C370.28,198,358.85,199.11,346.5,199Z"/><path class="cls-2" d="M349.56,238.52c-10.54-.35-21.15-2-30.89-7.42a28.68,28.68,0,0,1-10.78-9.82c-1.37-2.2-1.08-2.81,1.42-2.88,10.26-.3,20.37-2.08,30.56-3.07,6.55-.64,13,.22,19.41,1,7.19.83,14.36,1.84,21.64,1.72a70.71,70.71,0,0,0,12.67-1.11c.89-.18,1.87-.56,2.56.32s-.11,1.74-.48,2.51c-3.24,6.77-8.81,11-15.58,13.67C370.43,237.24,360.24,238.19,349.56,238.52Z"/><path class="cls-2" d="M331.22,205.19a6,6,0,0,0-4.24,2.29c-3.58,4.46-8,5.33-13.17,3.27a21.2,21.2,0,0,0-3.39-.81c-3.05-.65-5.78-.23-8,2.26-.55.65-1.31,1.24-2.14.49s-.14-1.51.34-2.17a15.56,15.56,0,0,1,3.87-3.85c3.21-2.15,5.66-2,8.66.36.65.52,1.25,1.11,1.9,1.63,2.29,1.83,4.18,1.94,6.59.23a24.8,24.8,0,0,0,3-2.63c4-3.95,8.06-4.69,13.2-2.3,1.88.88,3.72,1.86,5.58,2.79,3.28,1.61,6.53,1.83,9.76-.16.63-.4,1.32-.71,1.93-1.14,4.66-3.25,9.3-3.09,14,0,1,.64,2,1.23,3,1.8,5.17,2.9,8,2.69,12.4-1.3,2.77-2.53,5.84-2.64,9.08-1.66a53.09,53.09,0,0,1,10.59,5c.6.34,1.54.66,1,1.65s-1.38.82-2.19.45c-2-1-4-2-6.08-2.9-4.74-2-9.21-1.84-13.27,1.74a7.61,7.61,0,0,1-8.58,1.35,43.67,43.67,0,0,1-7.72-4.06c-3.64-2.47-7.18-2.1-10.82-.17a.8.8,0,0,0-.22.12c-5.51,4.5-11.08,3.91-16.82.38A15.41,15.41,0,0,0,331.22,205.19Z"/><path class="cls-3" d="M427.51,337.28c1.83-7.86,2.69-16.72,6.41-24.85a17.69,17.69,0,0,1,2-2.87c.5-.69,1.11-1.36,2.07-.94s.69,1.27.61,2c-.37,3.14-.85,6.26-1.2,9.41a97.38,97.38,0,0,0-.8,12.2c.05,3.81-2.27,6.38-5.14,8.32C429.35,341.93,427.54,340.63,427.51,337.28Z"/><path class="cls-4" d="M396.53,321.52c.51-3.09.81-6,1.5-8.8a8.59,8.59,0,0,1,5.58-6c1.92-.74,3.27.27,3,2.25-.82,5.84-3.93,10.3-8.6,13.77-.35.26-.86.53-1.1.18A4,4,0,0,1,396.53,321.52Z"/><path class="cls-5" d="M356.67,283.48a17.26,17.26,0,0,1,.39-6.16,3.05,3.05,0,0,1,3.78-2.37c1.93.35,1.82,1.89,1.71,3.32a18.5,18.5,0,0,1-4.23,10.16c-.24.3-.65.69-1,.67-.59,0-.66-.68-.67-1.15C356.65,286.46,356.67,285,356.67,283.48Z"/><path class="cls-6" d="M320.07,313.86c-1.51-.91-.56-3.05-2-4a2,2,0,0,1,.47-.5c.43-.22.74-.09,1,.35.42.66.49,2.17,1.45,1.7s.68-2.06.68-3.16c0-.46-.95-1.14,0-1.34s2.53-.38,3.22.19-.44.88-1.08,1c-1.11.16-1.33.95-1.12,1.84.31,1.25,1.05-.5,1.55.21-.37,1.85-2.46,1.74-3.43,2.92C320.41,313.18,320.46,313.72,320.07,313.86Z"/><path class="cls-7" d="M353.07,288.94c.43.18.74.44.47.94-1,1.83,0,2.22,1.57,2.79.84.3-2.15,2,.3,2.74.06,0,0,.3.07.46-3.69-.18-5.41-1.67-4.63-4,.59-.42,1.16-.79,1.09-1.72C351.9,289.52,352.14,288.81,353.07,288.94Z"/><path class="cls-8" d="M285.61,315.45c.86-1.51,2.54-.59,3.71-1.21.12-.06.6.21.6.35.09,1.58-.93,2.8-1.82,3.82-.62.7-2.15.45-3-.28-.53-.46-.25-1.23.46-1.62A.68.68,0,0,0,285.61,315.45Z"/><path class="cls-9" d="M448.07,287.52c1.89,1.39,1.05,3.14.62,4.82-.21.82-.9.6-1.41.41s-.63-.59-.19-1.12c.91-1.12-1.25-.61-.76-1.68,2.22.49,1.21-1.54,1.77-2.46Z"/><path class="cls-10" d="M298.68,337c.48,1.22-.44,1.67-1.25,2-1,.37-1.54-.75-2.26-1.19-1.05-.65.66-1.1.37-1.81-.09-.94.55-1,1.21-1a1.68,1.68,0,0,1,.67.33C297.86,335.87,297.87,336.74,298.68,337Z"/><path class="cls-11" d="M320.07,313.86l.73-.82c2.71,1.48,0,3.51.31,5.29-.83-1-2.75-1.6-.84-3.45C320.65,314.51,320.43,314.15,320.07,313.86Z"/><path class="cls-12" d="M260.08,332c.18-.71.07-1.17-.8-.83-.41.16-.73.81-1.24.32a.6.6,0,0,1,.22-1c.59-.24.17-1.83,1.06-1.13,1.21,1,1.46-.75,2.53-.33.37.57,0,1.29-.28,2-.39.31-.1.93-.56,1.2A.74.74,0,0,1,260.08,332Z"/><path class="cls-13" d="M429.52,307.52c1.62,1,3-.36,4.52-.45l0,0c-.3,1.2-1.74,1.56-2,2.87-.13.59-1.31.81-1.25-.19.07-1.15-2.56-.6-1.19-2.21Z"/><path class="cls-14" d="M263,321.45c.33-1.35,1.24-.67,1.6-.24a2.29,2.29,0,0,1,.05,2.92c-.45.61-1.08.1-1.46-.29a5.94,5.94,0,0,1-.73-1.25C262.19,322,262.74,321.79,263,321.45Z"/><path class="cls-15" d="M258.37,318.76c1.77-1-.28-2.89,1.7-3.3.51-.11,1.92.1,1.75.9C261.56,317.57,260.71,318.68,258.37,318.76Z"/><path class="cls-16" d="M366.42,330.51a1.7,1.7,0,0,1,.32,2.59c-.33.42-.88.12-1.26-.3-1.06-1.14-1.35-2.26,0-3.39C366,329.58,366.09,330.15,366.42,330.51Z"/><path class="cls-8" d="M448.6,303.53c-.12.79,1.22,1.8-.16,2.33-1.18.47-1.5-.86-1.87-1.53s-1.08-1.49-.48-2.43c1.09-.37,2-.22,2.38,1A2.21,2.21,0,0,1,448.6,303.53Z"/><path class="cls-17" d="M316.08,326c.77-.58,1.9-.8,2-2l0,0a3,3,0,0,1,2.28,1.54c-1.34.3-2.09,2.07-3.74,1C316.07,326.73,316,326.49,316.08,326Z"/><path class="cls-18" d="M206.33,328c-.67-.61,0-1.21,0-1.79-.09-1.05-.53-2.12.63-2.85.08-.05.53.26.52.29-.46,1.16,1.31,2.47-.26,3.57C206.91,327.43,206.86,328,206.33,328Z"/><path class="cls-19" d="M448.16,303.53c-.39,0-1.09.47-.92-.48s-.47-1.06-1.15-1.15l1-.39a1.83,1.83,0,0,0,.3-.59,2.87,2.87,0,0,1,1.66-2.39l1,1C450.74,301.47,449,302.27,448.16,303.53Z"/><path class="cls-7" d="M448.16,303.53c0-1.64,1.8-2.43,1.9-4a1.19,1.19,0,0,1,.44,2.07c-1.18.25.15,2.81-1.9,1.95h-.44Z"/><path class="cls-20" d="M353.07,288.94c-1,.75.48,3.44-2.22,2.93.28-1.41.29-2.93,1.67-3.86a.35.35,0,0,1,.58.09Z"/><path class="cls-21" d="M222.49,318.48c-.56-.08-1.27,0-1.23-.87s.37-1.3,1.22-1.27c.58,0,1.25,0,1.19.88C223.62,317.92,223.42,318.55,222.49,318.48Z"/><path class="cls-22" d="M351.56,328c-.13.44.39,1.36-.73,1.09s0-.56,0-.85a1.55,1.55,0,0,0-.31-.89c-.46-.59-.72-1.33,0-1.71s1.33.05,1.88.51c0,0,0,.16-.07.22a.56.56,0,0,1-.2.14C351.55,326.87,352.12,327.64,351.56,328Z"/><path class="cls-15" d="M208.38,320.59c1-.28,1.58-1.75,2.59-.75.38.38.18,1.18-.29,1.58C209.56,322.36,209.35,320.4,208.38,320.59Z"/><path class="cls-23" d="M446.07,293.64a1.58,1.58,0,0,1-1.51,1.33c-.56,0-1.14-.26-1.14-.74,0-1.14,1.13-1,1.8-1.28C445.64,292.76,446,293.09,446.07,293.64Z"/><path class="cls-24" d="M450.09,275.51a1.39,1.39,0,0,1,1.23.66,2.66,2.66,0,0,1,.41,2.08c-.06.19-.36.46-.51.43-1.06-.18-.48-1.21-.83-1.79a4.16,4.16,0,0,1-.27-1.41Z"/><path class="cls-25" d="M297.08,335.53l-1.54.46c-.56-.62-1.68-1.05-1-2.15s1.24.8,2,.24C297.25,334.35,297.56,334.79,297.08,335.53Z"/><path class="cls-17" d="M446.6,310.58c.06,1.16-.79,1.86-1.52,2.65,0-1.31-.43-2.82,1.55-3.34A.47.47,0,0,1,446.6,310.58Z"/><path class="cls-26" d="M315.9,338.21c-.8-.43-1.92-.52-1.9-1.58a1.08,1.08,0,0,1,1.29-.83C316.27,336.24,315.9,337.29,315.9,338.21Z"/><path class="cls-27" d="M442.91,310a1.12,1.12,0,0,1-1.15,1.05c-.62,0-1.18-.24-1.05-1a1.09,1.09,0,0,1,1.26-.9C442.51,309.15,442.92,309.34,442.91,310Z"/><path class="cls-28" d="M243.36,338.52c-.32.59-.36.8-.47.86-1,.48-2.09,1.12-3,.41s-.12-1.1.64-1.2c.53-.08.93.75,1.58.25C242.31,338.67,242.66,338.69,243.36,338.52Z"/><path class="cls-12" d="M450.83,282.64c-.94.09-1.87.22-2.82.26-.5,0-1.07-.15-1-.79s.69-.63,1.19-.53c.85.17,1.7.4,2.55.6Z"/><path class="cls-29" d="M448.1,287.49l-2-.48c-.48.08-.76,0-.54-.57-.47-1.21-.08-1.55,1.1-1.1,1,.38,1.1,1.37,1.45,2.18Z"/><path class="cls-13" d="M392.15,319.6a.8.8,0,0,1,1,.74c.09.7-.33,1.06-1,1.13s-1.15-.1-1.16-.86S391.52,319.64,392.15,319.6Z"/><path class="cls-30" d="M316.59,322.47c-.61.07-1.11.25-1,1a.31.31,0,0,1-.47,0c-.73-2.31.69-2.76,2.48-3,.31,1.17-1.36,1-1.06,2Z"/><path class="cls-24" d="M216.59,343.52l-.12-2.95a.48.48,0,0,1,.73-.09c1.41,1.19,1.35,1.44-.63,3Z"/><path class="cls-8" d="M218.07,326h2.16c-1.12,1.36-2.66,1.87-3.35,3.26-.93-.9,0-1.26.22-1.77C217.2,326.87,217.79,326.54,218.07,326Z"/><path class="cls-31" d="M450.12,275.48c-.18.17-.34.34-.52.49-.46.38-.17,1.7-1.37,1.16-.63-.29-.86-.84-.42-1.39.63-.8,1.38-1.52,2.28-.23Z"/><path class="cls-27" d="M244.77,317.23c.64.18.79.78.95,1.3s0,1.09-.69.89c-.43-.12-1.28-.11-1.06-1C244.09,317.93,244.13,317.39,244.77,317.23Z"/><path class="cls-15" d="M217.2,340.48l-.73.09-.19,0h-.19a4.71,4.71,0,0,1-1.59.89c-.69-.75-.73-1.55.2-2A1.59,1.59,0,0,1,217.2,340.48Z"/><path class="cls-32" d="M353.05,299c-.43-.82-.65-1.76.47-2,.81-.16,1.72.28,1.07,1.5C354.2,299.07,353.81,299.6,353.05,299Z"/><path class="cls-8" d="M443.08,340.51c.57-.18.09-1.51,1.18-1.09.37.15.92.45.68.84s-.29,1.49-1,1.52-.74-.73-.79-1.31Z"/><path class="cls-7" d="M355.19,279.83c-.64-.69-1.52-1.23-1.22-2.26,0-.12.64-.21.89-.1C356.2,278,355,279,355.19,279.83Z"/><path class="cls-33" d="M215.48,346.56c.84.49,1.89,1,1.29,2.17s-1.18.16-1.72-.22h0c0-.14,0-.29,0-.43A1.66,1.66,0,0,1,215.48,346.56Z"/><path class="cls-26" d="M241.05,335.45c-.56,2.3-1.7,1.75-3.27.87,1.15-1.19,2.4-.1,3.29-.83Z"/><path class="cls-25" d="M297.65,333.05c.33,0,.79-.12,1,0,.48.48,1.88-.75,1.66.94s-1.32-.34-1.76.4a.51.51,0,0,1-.82.19C297.18,334.15,297.4,333.58,297.65,333.05Z"/><path class="cls-34" d="M449,298.53l-1.32,2.89c-.83-.43-.55-1.23-.63-1.91C447.43,298.61,447.82,297.75,449,298.53Z"/><path class="cls-35" d="M192,320.52l2.43.12c-.61,1.1-1.6,1.19-2.32,1.67-.71-.69.51-1.25-.06-1.82Z"/><path class="cls-11" d="M440.84,322.82c.59.16,1.35.18,1.32,1.07,0,.43-.37.87-.77.74a1.77,1.77,0,0,1-1.37-1.19C439.92,322.93,440.43,322.87,440.84,322.82Z"/><path class="cls-36" d="M390.25,323.39c.87.88,1.14,1.58.27,2.31-.33.27-.87.52-1.07.06C389.06,324.87,389.92,324.29,390.25,323.39Z"/><path class="cls-37" d="M299.5,329.06c0,.89,1.16,1.47.6,2.82-.56-.86-2.37-.68-1.13-2.32C298.84,329.06,299,328.91,299.5,329.06Z"/><path class="cls-24" d="M424.93,322.82,423,321.15C424.62,320.47,424.63,320.48,424.93,322.82Z"/><path class="cls-17" d="M365.25,318.88l1.73,3.43C365.27,321.49,365.27,321.49,365.25,318.88Z"/><path class="cls-22" d="M419,331.72a3.49,3.49,0,0,1,2.6-.61C421.14,333.27,420.08,332.49,419,331.72Z"/><path class="cls-30" d="M195.36,319.56l3.57.46C197.58,321,196.61,321.64,195.36,319.56Z"/><path class="cls-38" d="M359,346.34c.74.41,1.3.79,1.06,1.57-.07.22-.51.31-.79.46A1.87,1.87,0,0,1,359,346.34Z"/><path class="cls-17" d="M249.36,343.62c-.35,0-.75,0-.67-.48a1.2,1.2,0,0,1,1-1,.64.64,0,0,1,.8.7C250.44,343.49,249.84,343.51,249.36,343.62Z"/><path class="cls-39" d="M260.08,332l1,.08a.73.73,0,0,1,0,1.05c-.42,1.32-1.27.64-2,.44-.38-.59.15-.76.48-1Z"/><path class="cls-9" d="M318.14,322.53a4.83,4.83,0,0,1,2.73-2.66C320.14,321.28,319.71,322.13,318.14,322.53Z"/><path class="cls-40" d="M285.61,315.45c.6.34,2-.2,1.71,1-.16.81-1.13.54-1.76.06Z"/><path class="cls-41" d="M223.12,312.48c-.68-.58-1.2-1.38-.34-2s1.3.46,1.78,1C224.16,312,223.33,311.75,223.12,312.48Z"/><path class="cls-42" d="M368.5,330.53c-1.46.18-1.28-.77-.89-1.52.22-.41.92-1.5,1.43,0A3.35,3.35,0,0,0,368.5,330.53Z"/><path class="cls-43" d="M362.6,328a3.65,3.65,0,0,0,1.25-1.95c1.29,1.23-.11,1.7-.28,2.43.13.24.08.55-.17.56C362.74,329.07,362.76,328.46,362.6,328Z"/><path class="cls-44" d="M297.65,333.05c.33.43-.26,1.43.85,1.39l.06,1.58c-.69.36-1.06-.19-1.52-.51l0,0c-.19-.49-.37-1-.56-1.45Z"/><path class="cls-18" d="M297,335.51c.71-.45,1.06.2,1.52.51l.12,1C297,337.71,297.06,336.58,297,335.51Z"/><path class="cls-30" d="M242.47,323.58c-.63-1.42-.42-2.13.22-2.81C243.17,321.62,242.87,322.33,242.47,323.58Z"/><path class="cls-29" d="M444.64,296.55c.22-1.05,1.3-.92,1.93-1.4a.52.52,0,0,1,0,.84c-.33.61-.52,1.44-1.52.93A.52.52,0,0,1,444.64,296.55Z"/><path class="cls-45" d="M446.6,310.58l0-.69c.54.06.9-.9,1.52-.28a.64.64,0,0,1,0,.89C447.68,311.13,447.13,310.65,446.6,310.58Z"/><path class="cls-46" d="M219.77,334.37c0,.44-.33.56-.68.51s-.85-.22-.85-.72.36-.53.7-.54C219.44,333.6,219.68,333.92,219.77,334.37Z"/><path class="cls-25" d="M445.61,324.72c.74-.3,1.42-.48,2,.24a.68.68,0,0,1-.12.6A1.55,1.55,0,0,1,445.61,324.72Z"/><path class="cls-47" d="M284.09,305.53c-.26-.62-2,0-1.23-1.45.13-.24.67-.53.8-.45.76.47.15,1.3.4,1.93Z"/><path class="cls-26" d="M440.92,304.59c1-.12,1.77-.47,2.09.52.06.19-.07.63-.16.65C442,305.9,441.59,305.31,440.92,304.59Z"/><path class="cls-48" d="M259.58,320.51a1.67,1.67,0,0,1,2-1,1,1,0,0,1,0,1.44l-2-.47Z"/><path class="cls-27" d="M427.48,324.59a.86.86,0,0,1-.77.81c-.49.08-.85-.19-.79-.66a.88.88,0,0,1,.91-.68C427.18,324,427.48,324.15,427.48,324.59Z"/><path class="cls-26" d="M315.14,323.51h.47c.91,1.27-.72,1-1,1.59-.1.19-.39-.1-.44-.35C314,324,314.93,324,315.14,323.51Z"/><path class="cls-49" d="M284.11,325.35a1.54,1.54,0,0,1,1.2-1.91A1.87,1.87,0,0,1,284.11,325.35Z"/><path class="cls-50" d="M192.07,320.49c-.49-.09-1.32.34-1.23-.64s.75-.56,1.28-.37c1.31.47-.15.68-.1,1Z"/><path class="cls-6" d="M311.89,323.36c-.59-.06-.62-.37-.55-.7s.2-.81.67-.84.52.33.41.65A5.37,5.37,0,0,1,311.89,323.36Z"/><path class="cls-51" d="M446.1,343.27c-.46.87-1,.88-1.81.38A1.2,1.2,0,0,1,446.1,343.27Z"/><path class="cls-52" d="M443.11,340.47c-.6.12-1.1.9-1.76.28-.1-.09.07-.64.26-.81.82-.74,1.08.1,1.47.57Z"/><path class="cls-53" d="M277.48,340c-.31-.15-.93.1-.85-.55,0-.16.54-.38.79-.35a1,1,0,0,1,.72.53C278.27,340.19,277.76,339.91,277.48,340Z"/><path class="cls-54" d="M447.71,312.53c.38,0,.58.23.49.6s0,.9-.5.93a.78.78,0,0,1-.77-.77C446.92,312.84,447.32,312.65,447.71,312.53Z"/><path class="cls-50" d="M421.37,339.26c.11.57-.14.77-.46.88s-.67.05-.75-.35a.69.69,0,0,1,.57-.9C421,338.86,421.22,339.16,421.37,339.26Z"/><path class="cls-55" d="M263,338.18a.71.71,0,0,1-.84.31c-.32-.05-.74-.12-.63-.57s.5-.38.82-.33S263,337.76,263,338.18Z"/><path class="cls-56" d="M263.49,314.08c-.75.72-1.57.34-2.23,0s0-.49.28-.62C262.43,312.9,263.12,313,263.49,314.08Z"/><path class="cls-57" d="M449.27,294.15a.59.59,0,0,1,.59.63c0,.4-.1.88-.59.87-.16,0-.37-.49-.46-.79A.53.53,0,0,1,449.27,294.15Z"/><path class="cls-8" d="M191.08,331.94c-1.09-.35-1.67-.59-1.82-1.28,0-.11.29-.42.45-.42C190.6,330.24,190.51,331.06,191.08,331.94Z"/><path class="cls-28" d="M191.82,298.83c-.62.68-1.27.8-1.57.31-.48-.81.32-.59.7-.59A3.42,3.42,0,0,1,191.82,298.83Z"/><path class="cls-58" d="M316,331.16a3.32,3.32,0,0,1,2.76-1.28A3.94,3.94,0,0,1,316,331.16Z"/><path class="cls-59" d="M348.59,333.53c.4-.39-.29-1.32.46-1.35s1.15.54.64,1.34A.83.83,0,0,1,348.59,333.53Z"/><path class="cls-42" d="M444.64,296.55l.41.37-.48.09c-.51.14-.94.76-1.54.3-.09-.07-.06-.47.05-.62C443.53,296.12,444.1,296.43,444.64,296.55Z"/><path class="cls-60" d="M189.8,302.05c-.67.12-1.08.09-1-.52,0-.16.4-.43.48-.39a7.11,7.11,0,0,1,.95.71Z"/><path class="cls-25" d="M365.29,324.92c-.21.13-.45.38-.72.41s-.81-.2-.66-.68c.07-.2.49-.37.76-.4S365.25,324.43,365.29,324.92Z"/><path class="cls-61" d="M447.07,299.51c.64.5.37,1.29.63,1.91l-.64.09C446.3,300.84,446.21,300.17,447.07,299.51Z"/><path class="cls-13" d="M445.52,286.44l.54.57c-.12.59-.25,1.19-.42,2A1.85,1.85,0,0,1,445.52,286.44Z"/><path class="cls-18" d="M351.56,328a1.92,1.92,0,0,1,.55-1.49c-.15.56.27.89.46,1.32s0,1.06-.17,1.09C351.75,329.05,352.06,328.13,351.56,328Z"/><path class="cls-62" d="M218.84,330.42c-.38,0-.75-.1-.71-.5s.45-.4.75-.36.55.18.56.31C219.48,330.27,219.13,330.36,218.84,330.42Z"/><path class="cls-63" d="M214.5,341.45a1.28,1.28,0,0,1,1.59-.89C216,341.67,215.53,342,214.5,341.45Z"/><path class="cls-64" d="M362.6,328c.31.19.48.67,1,.48a.62.62,0,0,1,.29,1,.54.54,0,0,1-.81.15C362.47,329.21,362.14,328.73,362.6,328Z"/><path class="cls-28" d="M194.68,312.2c-1.27-.36-1.73-.76-1.51-1.69C194.12,310.56,194.07,311.36,194.68,312.2Z"/><path class="cls-42" d="M395.65,310.54c.05.39-.16.65-.51.58a1.06,1.06,0,0,1-.71-.49c-.13-.34.17-.57.52-.6A.63.63,0,0,1,395.65,310.54Z"/><path class="cls-65" d="M284.06,305.56c.36.51,1.19,1,.95,1.56-.32.75-1,.11-1.46-.1-.3-.57.2-.74.5-1a.69.69,0,0,0,0-.47Z"/><path class="cls-66" d="M434,307.07c.13-.43.1-1.07.73-1a.64.64,0,0,1,.51.91c-.3.6-.82.16-1.26.1Z"/><path class="cls-67" d="M443.93,317c.9-.15,1.28-.06,1.19.36,0,.23-.42.46-.7.55s-.73.05-.67-.43C443.78,317.14,444,316.85,443.93,317Z"/><path class="cls-68" d="M259.56,320.49c-.1.66.68.83.82,1.37-.82.46-1.31.08-1.54-.64s.37-.59.74-.71Z"/><path class="cls-69" d="M284.05,306l-.5,1c-.37.1-1,.46-1.06,0C282.39,306,283.33,306.06,284.05,306Z"/><path class="cls-70" d="M221.19,309.44c-.91.24-1.59.76-1.9.16s.35-.83.94-.68A6.82,6.82,0,0,1,221.19,309.44Z"/><path class="cls-37" d="M208.69,312.72c.48,1.15.42,1.73-.21,2.29C207.57,314.3,208.53,313.79,208.69,312.72Z"/><path class="cls-71" d="M258.22,337.33c-.13.8-.87.9-1.09.71-.6-.52.2-.53.43-.69S258,337.33,258.22,337.33Z"/><path class="cls-72" d="M442.6,318.79a.7.7,0,0,1-.74.62c-.19,0-.51-.21-.51-.32,0-.4.36-.52.7-.52A1.45,1.45,0,0,1,442.6,318.79Z"/><path class="cls-73" d="M299.5,329.06l-.53.5c-.67-.79.16-1.33.14-2.1C300.06,328,299.68,328.53,299.5,329.06Z"/><path class="cls-74" d="M350.63,314.39c.14.32.3.52.3.72s-.19.67-.6.52c-.13,0-.24-.42-.2-.63S350.39,314.66,350.63,314.39Z"/><path class="cls-9" d="M366.42,330.51a1.47,1.47,0,0,1-.95-1.1c0-.23,0-.45.07-.68.18.07.5.09.53.21C366.23,329.45,366.31,330,366.42,330.51Z"/><path class="cls-13" d="M353.05,299l1.54-.49a.89.89,0,0,1-.65,1.32C353.27,300,353.1,299.53,353.05,299Z"/><path class="cls-75" d="M442.55,329.93c-.15-.12-.48-.25-.49-.41,0-.67.54-.44.88-.48s.42.14.63.21A1.2,1.2,0,0,1,442.55,329.93Z"/><path class="cls-76" d="M284,316.79c-.54.32-1.27.34-1.38,0-.28-.9.42-.49.79-.38A2.75,2.75,0,0,1,284,316.79Z"/><path class="cls-77" d="M200.54,317c0,.43-.16.74-.55.7-.14,0-.38-.37-.34-.46a3.38,3.38,0,0,1,.55-.66Z"/><path class="cls-64" d="M192.08,330.6c.8-.38,1.46-.23,1.56.17.23.9-.4.59-.83.38A5.65,5.65,0,0,1,192.08,330.6Z"/><path class="cls-32" d="M278.42,330.63c0,.45-.37.44-.64.52s-.67.31-.67-.23c0-.17.26-.4.46-.5A.66.66,0,0,1,278.42,330.63Z"/><path class="cls-6" d="M440.17,331.1c-.05.87-.38,1-.69.85a1,1,0,0,1-.55-.67.44.44,0,0,1,.64-.47A4.15,4.15,0,0,1,440.17,331.1Z"/><path class="cls-78" d="M450.08,278.38c-.05.43-.15.76-.56.72-.14,0-.35-.31-.35-.48a.56.56,0,0,1,.55-.65C449.85,278,450,278.27,450.08,278.38Z"/><path class="cls-7" d="M215.48,346.56c.07.57.12,1.13-.43,1.53-.67-.31-1-.75-.7-1.52a.44.44,0,0,1,.7-.05A3,3,0,0,1,215.48,346.56Z"/><path class="cls-15" d="M318.1,324c-1.17.15-1.68-.36-1.51-1.53l0,0c.69.32,1.45.58,1.5,1.54Z"/><path class="cls-50" d="M298.87,345.19c.82-.2,1.54-.29,1.65.19.21.95-.51.49-.89.37A3.25,3.25,0,0,1,298.87,345.19Z"/><path class="cls-79" d="M191.93,307.39c-.08.14-.14.44-.32.53s-.46-.13-.44-.39.1-.56.26-.64S191.85,307,191.93,307.39Z"/><path class="cls-80" d="M393.91,326.33c-.14.12-.35.45-.61.5-.56.11-.42-.33-.36-.64s.07-.73.47-.73S393.94,325.79,393.91,326.33Z"/><path class="cls-13" d="M215.05,346.52l-.7.05c-.72-.17-.94-1-.55-1.19C214.83,344.85,214.59,346.15,215.05,346.52Z"/><path class="cls-47" d="M353.1,288.1l-.58-.09c.22-.52,0-1.57.81-1.37C353.83,286.76,353.47,287.63,353.1,288.1Z"/><path class="cls-81" d="M261.08,333.12l0-1.05.51-1.06C261.54,331.75,262.44,332.7,261.08,333.12Z"/><path class="cls-82" d="M366.85,310.94c.44,0,.54.24.38.45a1.18,1.18,0,0,1-.54.39c-.28.09-.51-.11-.4-.35S366.71,311.05,366.85,310.94Z"/><path class="cls-12" d="M365,342.08c.51.05.63.35.54.68a.62.62,0,0,1-.47.36c-.35,0-.62-.25-.49-.63C364.6,342.3,364.84,342.18,365,342.08Z"/><path class="cls-83" d="M369.91,315.77c.15.17.41.38.38.45s-.29.42-.46.43-.66-.16-.55-.56C369.31,316,369.64,315.9,369.91,315.77Z"/><path class="cls-46" d="M446.56,279.18c.21.26.43.42.44.58s-.22.33-.34.5c-.15-.15-.39-.28-.43-.45S446.4,279.47,446.56,279.18Z"/><path class="cls-62" d="M280,341.1l-.32.54c-.11-.18-.32-.36-.32-.54s.14-.55.28-.58C280,340.44,280,340.76,280,341.1Z"/><path class="cls-84" d="M259.54,332.53l-.48,1c-.4-.07-1-.17-.91-.59C258.3,332.16,259.05,332.62,259.54,332.53Z"/><path class="cls-42" d="M425.47,315.18c-.59.37-.8.6-.94.57a.7.7,0,0,1-.39-.5c-.05-.27.16-.46.46-.4A5.17,5.17,0,0,1,425.47,315.18Z"/><path class="cls-37" d="M315.07,314.79a1.17,1.17,0,0,1-.26,1.35s-.35-.11-.38-.22C314.28,315.37,314.41,314.93,315.07,314.79Z"/><path class="cls-31" d="M348.59,333.53h1.1c-.1.48.4,1.34-.5,1.33C348.5,334.85,348.86,334,348.59,333.53Z"/><path class="cls-27" d="M446.57,296v-.84c.55-.16,1.11,0,1.09.55C447.62,296.46,447,296.13,446.57,296Z"/><path class="cls-85" d="M389.6,339.13c.84.39,1.3.66,1.24,1.38C390,340.6,389.89,340,389.6,339.13Z"/><path class="cls-28" d="M365.87,336l.46.36c-.26.14-.52.28-.79.41s-.53.1-.51-.23S365.41,336.09,365.87,336Z"/><path class="cls-86" d="M259,340c-.23-.19-.49-.3-.52-.45s.19-.43.33-.44a.57.57,0,0,1,.49.28C259.29,339.55,259.09,339.76,259,340Z"/><path class="cls-87" d="M192.46,340.14c-.2.19-.38.48-.52.46-.41-.05-.35-.45-.33-.74s.19-.5.47-.33S192.32,339.9,192.46,340.14Z"/><path class="cls-25" d="M388.23,337.79l-.6-.46c.16-.11.34-.3.5-.3a.78.78,0,0,1,.61.27C388.9,337.56,388.67,337.72,388.23,337.79Z"/><path class="cls-88" d="M263.49,314.08l-1.95-.64.1-.51a3.39,3.39,0,0,1,2.39,0Z"/><path class="cls-23" d="M450.91,292c-.5-.29-.92-.84-.64-1.15.51-.56.77,0,.82.49A2.18,2.18,0,0,1,450.91,292Z"/><path class="cls-29" d="M260.87,310.41c.25,0,.6.11.52.52a.6.6,0,0,1-.49.34.75.75,0,0,1-.49-.45C260.31,310.54,260.51,310.4,260.87,310.41Z"/><path class="cls-89" d="M420.65,325.33l.3-.43a2.32,2.32,0,0,1,.44.38s-.17.34-.22.33A2.65,2.65,0,0,1,420.65,325.33Z"/><path class="cls-90" d="M352,303.34c-.09.11-.23.42-.37.42-.51,0-.25-.47-.35-.72s-.05-.55.26-.53S352,302.89,352,303.34Z"/><path class="cls-91" d="M261.54,321l0-1.44c.42.09.83.26.83.75S262,320.91,261.54,321Z"/><path class="cls-92" d="M350.61,306.94c.21-.19.37-.45.54-.45.44,0,.41.35.34.66s-.18.49-.47.34S350.77,307.16,350.61,306.94Z"/><path class="cls-12" d="M194.54,327.26c-.19-.12-.55-.23-.68-.46-.26-.47.17-.45.47-.5s.64-.18.74.26S195,327.18,194.54,327.26Z"/><path class="cls-93" d="M218.07,326a1.83,1.83,0,0,1-1,1.49C216.24,326.23,217.68,326.47,218.07,326Z"/><path class="cls-16" d="M316.08,326l.52.52L315.05,328l0,0A1.79,1.79,0,0,1,316.08,326Z"/><path class="cls-94" d="M348.62,324.22c.41,0,.6.16.45.41a1.39,1.39,0,0,1-.7.53c-.24.07-.52-.17-.38-.41S348.45,324.36,348.62,324.22Z"/><path class="cls-6" d="M315.05,328c-1,1.14-1.41.32-2.17-.87l2.2.9Z"/><path class="cls-78" d="M241.44,328.46a4.71,4.71,0,0,1-.59.61,1.6,1.6,0,0,1-.43-.39A1.9,1.9,0,0,1,241,328C241.27,327.84,241.45,328,241.44,328.46Z"/><path class="cls-95" d="M439.54,319.36c-.16-.07-.38-.13-.38-.18a1.08,1.08,0,0,1,.15-.66c.19-.21.46-.1.47.19A1.91,1.91,0,0,1,439.54,319.36Z"/><path class="cls-37" d="M300.92,324.82c-.3,0-.56-.06-.45-.33a1.49,1.49,0,0,1,.63-.66.63.63,0,0,1,.54.23C301.75,324.62,301.11,324.53,300.92,324.82Z"/><path class="cls-78" d="M391.27,316.37c-.14-.09-.41-.16-.49-.32s.13-.46.38-.44a.79.79,0,0,1,.56.31C391.89,316.24,391.58,316.29,391.27,316.37Z"/><path class="cls-17" d="M350.59,299.28a3.25,3.25,0,0,1-.67.71.26.26,0,0,1-.4-.32,2.06,2.06,0,0,1,.67-.64S350.42,299.17,350.59,299.28Z"/><path class="cls-8" d="M424.57,329.43c-.27.22-.43.47-.61.48s-.35-.24-.52-.37c.15-.15.28-.41.45-.44S424.26,329.27,424.57,329.43Z"/><path class="cls-87" d="M263,321.45l-.54,1.14c-.38.06-.87.13-.77-.46S262.53,321.58,263,321.45Z"/><path class="cls-96" d="M394.57,319.06a3.18,3.18,0,0,1,.3.76.44.44,0,0,1-.25.36.36.36,0,0,1-.49-.37C394.12,319.68,394.28,319.54,394.57,319.06Z"/><path class="cls-97" d="M362.49,353.23c-.26.34-.45.18-.61,0a1.63,1.63,0,0,1-.24-.38c.19-.06.43-.21.54-.15S362.4,353.07,362.49,353.23Z"/><path class="cls-98" d="M215.05,348.51c0,.35.13.8-.37,1a.42.42,0,0,1-.31-.23c-.08-.53.33-.61.7-.72Z"/><path class="cls-99" d="M295.94,340c.21.28.44.45.43.61a.67.67,0,0,1-.37.49c-.3.1-.42-.18-.39-.42A3.35,3.35,0,0,1,295.94,340Z"/><path class="cls-100" d="M286.15,312.62c-.32.27-.49.51-.66.51s-.33-.24-.5-.37c.12-.1.24-.27.37-.29A3.32,3.32,0,0,1,286.15,312.62Z"/><path class="cls-37" d="M445.24,321.4c-.63,0-.93,0-.81-.32a.87.87,0,0,1,.54-.4c.16,0,.37.09.56.14Z"/><path class="cls-101" d="M197.11,323.35a2.68,2.68,0,0,1-.62.15c-.26,0-.54-.14-.33-.44a.82.82,0,0,1,.62-.3C197,322.76,197.22,323,197.11,323.35Z"/><path class="cls-45" d="M347.84,303.78l-.17.52a3.32,3.32,0,0,1-.6-.29.85.85,0,0,1,.12-.39A5.13,5.13,0,0,1,347.84,303.78Z"/><path class="cls-80" d="M359.61,342.06c-.11.19-.2.44-.27.44-.42,0-.53-.38-.58-.7s.17-.48.45-.3S359.48,341.88,359.61,342.06Z"/><path class="cls-102" d="M223.12,312.48c.09-.91.76-.93,1.44-1C224.54,312.55,223.64,312.21,223.12,312.48Z"/><path class="cls-64" d="M298.69,323.89l.43.37c-.17.13-.35.35-.52.35a.61.61,0,0,1-.46-.38C298.08,324,298.29,323.81,298.69,323.89Z"/><path class="cls-18" d="M351.85,324.76c-.21-.17-.52-.31-.51-.45,0-.39.38-.43.67-.46s.46.19.37.43S352.06,324.58,351.85,324.76Z"/><path class="cls-103" d="M302.4,345.37l-.3-.27.52-.3c.06.13.19.3.15.37S302.53,345.31,302.4,345.37Z"/><path class="cls-80" d="M215.59,343.5c-.52-.11-1.2.28-1.53-.48.76-.59,1.07.13,1.49.5Z"/><path class="cls-104" d="M361.57,343c-.1.1-.18.26-.29.29s-.43-.09-.35-.36a.42.42,0,0,1,.36-.19C361.38,342.69,361.47,342.85,361.57,343Z"/><path class="cls-105" d="M216.57,343.49c-.31.43-.49,1.2-1.12,1s.1-.64.14-1l0,0h1Z"/><path class="cls-106" d="M188.52,307.87c.13.14.3.28.28.32s-.22.42-.4.5-.47-.06-.35-.34S188.35,308,188.52,307.87Z"/><path class="cls-25" d="M363.3,332a2,2,0,0,1,.34.48c.09.28-.12.49-.37.4a.88.88,0,0,1-.43-.51C362.73,332.07,362.93,332,363.3,332Z"/><path class="cls-107" d="M368.5,330.53c-.68-.82,0-1.15.54-1.56A1.88,1.88,0,0,1,368.5,330.53Z"/><path class="cls-45" d="M429.55,307.51c-.36-.56-.16-.86.47-.93a1.14,1.14,0,0,1,.42.11l-.92.83Z"/><path class="cls-108" d="M301.06,328.87c.07.12.21.27.18.36s-.21.18-.33.27c-.06-.13-.2-.27-.18-.37S301,329,301.06,328.87Z"/><path class="cls-26" d="M422.82,314.68a3.86,3.86,0,0,1,.37.74c.06.28-.12.53-.39.46a.72.72,0,0,1-.36-.55C422.43,315.15,422.65,315,422.82,314.68Z"/><path class="cls-25" d="M439.93,333c.17.13.42.24.48.41a.29.29,0,0,1-.38.39c-.19-.07-.32-.31-.47-.48Z"/><path class="cls-18" d="M281.43,329.55l-.49-.44c.15-.17.28-.4.46-.47s.31.19.48.31Z"/><path class="cls-103" d="M281.39,334.88c-.11.1-.22.27-.32.27-.3,0-.34-.27-.22-.48s.25-.13.38-.19Z"/><path class="cls-73" d="M352.27,296.27a3.51,3.51,0,0,1-.18.46,2.34,2.34,0,0,1-.59-.23s.09-.36.14-.36A3,3,0,0,1,352.27,296.27Z"/><path class="cls-109" d="M241.07,335.49a.79.79,0,0,1,1.22-.29.44.44,0,0,1,.05.4c-.48.49-.86,0-1.29-.15Z"/><path class="cls-17" d="M394.73,314l.41.21a2.3,2.3,0,0,1-.45.48c-.07,0-.35-.11-.39-.22C394.2,314.12,394.46,314,394.73,314Z"/><path class="cls-8" d="M422.3,335.92c-.26.24-.42.49-.6.51s-.34-.23-.51-.36c.15-.16.27-.42.45-.46S422,335.77,422.3,335.92Z"/><path class="cls-110" d="M215.5,337c0,.33-.06.58-.33.5s-.3-.31-.39-.5.18-.31.21-.3C215.18,336.81,215.36,336.94,215.5,337Z"/><path class="cls-101" d="M259.47,327.52l-.57.31c-.07-.13-.22-.34-.18-.39a2.59,2.59,0,0,1,.51-.42Z"/><path class="cls-57" d="M186.61,319.74c.09-.29.12-.63.46-.39a.93.93,0,0,1,.37.58c0,.26-.14.52-.45.33S186.72,319.9,186.61,319.74Z"/><path class="cls-111" d="M313.16,338.63c-.2.32-.44.32-.62.12s-.31-.43-.26-.6.39-.24.56-.08A2,2,0,0,1,313.16,338.63Z"/><path class="cls-75" d="M366.72,325.81c.26.32.43.49.55.68s.21.52-.11.58c-.15,0-.42-.25-.51-.44S366.68,326.2,366.72,325.81Z"/><path class="cls-112" d="M220.11,319.15a3.18,3.18,0,0,1,.29.33c-.14.17-.29.39-.48.45s-.54,0-.36-.38C219.65,319.37,219.92,319.28,220.11,319.15Z"/><path class="cls-113" d="M291.13,313a2.68,2.68,0,0,1-.73.25A.5.5,0,0,1,290,313c-.16-.37.17-.4.37-.37S290.77,312.79,291.13,313Z"/><path class="cls-80" d="M264,313l-2.39,0A1.73,1.73,0,0,1,264,313Z"/><path class="cls-56" d="M314.07,339.36c.4-.06.48.18.44.39a1.66,1.66,0,0,1-.34.52c-.14-.14-.4-.28-.4-.41S314,339.5,314.07,339.36Z"/><path class="cls-1" d="M253.07,188.28v-5.73c0-2.69,1.11-3.93,3.78-4.16a7.86,7.86,0,0,1,3.92.57c.83.38,1.67.75,2.5,1.14,8.09,3.81,9,3.65,15-2.79,3.54-3.76,5.66-3.71,9,.18,1.56,1.81,2.71,4,5.13,5,.86.33.6,1.09.47,1.72-2.85,14-3,28.1-2.78,42.25a29.18,29.18,0,0,1-.17,3.24,4.83,4.83,0,0,1-4.19,4.62,131.26,131.26,0,0,1-16.5,2.55c-6.1.4-8.46-1.39-9.79-7.44C256.51,215.84,253.28,202.31,253.07,188.28Z"/><path class="cls-1" d="M253.56,166.69c0-2.74,0-5.49,0-8.24,0-1.49.57-2.16,2.08-2.52a137.84,137.84,0,0,1,36.44-3.37c2.92.09,4.57,1.53,4.44,4.28a169.87,169.87,0,0,1-2.76,22c-.23,1.24-.84,1.22-1.74.64-1.59-1-2.5-2.65-3.62-4.09-3.86-5-7.65-5-11.59-.18-.42.52-.81,1.06-1.24,1.57-3.43,4.09-6,4.53-10.67,1.91-1.67-.92-3.35-1.86-5.08-2.66a5.61,5.61,0,0,0-4.85-.17c-1.77.83-1.89,0-1.83-1.45.1-2.58,0-5.16,0-7.74Z"/><path class="cls-1" d="M394,193.65c-2.23.14-4.1.24-6,.37-13.11.92-26.21,1.95-39.35,2.61-10.27.52-20.21-1.33-30.18-3.26-1.59-.31-3.22-.36-5.26-.58a41.08,41.08,0,0,1,9.32-6.77,66.68,66.68,0,0,1,33.58-8.18,82.35,82.35,0,0,1,13.65,1.21C379.59,180.81,387.06,186.34,394,193.65Z"/><path class="cls-1" d="M350.19,236.17c-10.94-.08-22.44-2.15-32.77-8.75a24,24,0,0,1-5.64-4.89c-1.11-1.32-.69-1.89.9-1.94,11-.33,21.87-1.94,32.84-2.55,8.11-.45,16.09,1.07,24.13,1.65,6.79.48,13.58,1.51,20.38,0,.81-.18,1.76-.34,2.29.49s-.22,1.58-.7,2.2c-4.29,5.5-10.33,8.3-16.7,10.42C367.27,235.38,359.27,235.86,350.19,236.17Z"/><path class="cls-114" d="M274.33,233.18c-4.12-.12-7.74-2.36-11.34-4.6-1.27-.8-1.06-1.74,0-2.59a76.84,76.84,0,0,0,9.67-9,1.86,1.86,0,0,1,2.44-.52,49.34,49.34,0,0,1,6.73,3.78,1.71,1.71,0,0,1,.47,2.73,57.81,57.81,0,0,0-4.83,8.71C276.92,233,275.93,233.35,274.33,233.18Z"/><path class="cls-115" d="M278.14,210.59a16.43,16.43,0,0,1-7.06-1.25c-1.43-.66-1.85-1.53-.95-3a23.41,23.41,0,0,0,4-10.38c.12-1.21.91-2,2.06-1.08,2.42,1.88,5.22,1.95,8.06,2,2.64.06,3,.58,1.85,3a33.37,33.37,0,0,0-2.5,7.56c-.48,2.45-1.52,3.77-4.2,3.08A5.21,5.21,0,0,0,278.14,210.59Z"/><path class="cls-4" d="M274.32,230.8a19.19,19.19,0,0,1-7.85-2.88c-.76-.45-.86-.9-.16-1.51a80.53,80.53,0,0,0,7.25-6.81,1.3,1.3,0,0,1,1.78-.3c.43.24.89.44,1.34.66,3.49,1.78,3.47,1.77,1.55,5.11-.87,1.51-1.65,3.06-2.44,4.62C275.43,230.41,275,231,274.32,230.8Z"/><path class="cls-4" d="M272.77,206.83l.54-1.06c.44-.89.83-1.82,1.33-2.67.91-1.55.58-4.23,2.15-4.69s3.46.7,5.31.72c1.06,0,1.46.49,1,1.61a20,20,0,0,0-1.4,4.5c-.33,2.95-2.08,3.41-4.51,3-1.15-.17-2.31-.29-3.44-.52C273.35,207.67,272.76,207.59,272.77,206.83Z"/></svg>